<mxfile host="app.diagrams.net" modified="2023-04-03T14:04:34.838Z" agent="Mozilla/5.0 (X11; Linux x86_64) AppleWebKit/537.36 (KHTML, like Gecko) Chrome/111.0.0.0 Safari/537.36" version="21.1.4" etag="kOt495M_uzWtEpq4hEYr" type="github">
  <diagram name="第 1 页" id="B1fy6VLCPBDwo88-rgcQ">
    <mxGraphModel>
      <root>
        <mxCell id="0" />
        <mxCell id="1" parent="0" />
      </root>
    </mxGraphModel>
  </diagram>
</mxfile>
